<svg width="127" height="32" viewBox="0 0 127 32" fill="none" xmlns="http://www.w3.org/2000/svg">
<g clip-path="url(#clip0_123_232)">
<path d="M25.6279 7.74023C25.3509 7.74026 25.0853 7.84479 24.8894 8.03084C24.6936 8.2169 24.5835 8.46923 24.5835 8.73235V9.72486C24.5835 9.98798 24.6936 10.2403 24.8894 10.4264C25.0853 10.6124 25.3509 10.717 25.6279 10.717C25.9049 10.717 26.1705 10.6124 26.3664 10.4264C26.5623 10.2403 26.6723 9.98798 26.6723 9.72486V8.73235C26.6723 8.46923 26.5623 8.2169 26.3664 8.03084C26.1705 7.84479 25.9049 7.74026 25.6279 7.74023Z" fill="#3941BC"/>
<path d="M21.4507 7.73975C21.1737 7.73977 20.908 7.8443 20.7122 8.03036C20.5163 8.21641 20.4063 8.46875 20.4062 8.73186V9.72437C20.4063 9.98749 20.5163 10.2398 20.7122 10.4259C20.908 10.6119 21.1737 10.7165 21.4507 10.7165C21.7277 10.7165 21.9933 10.6119 22.1892 10.4259C22.385 10.2398 22.4951 9.98749 22.4951 9.72437V8.73186C22.4951 8.46875 22.385 8.21641 22.1892 8.03036C21.9933 7.8443 21.7277 7.73977 21.4507 7.73975Z" fill="#3941BC"/>
<path d="M22.4203 0.000153271C18.3986 0.000153271 15.1154 3.05047 15.1154 6.78789L15.1158 18.4243C15.1159 21.1134 12.792 23.2729 9.89812 23.2729C7.00387 23.2729 4.67131 21.1127 4.68004 18.4271L4.6918 14.5482C4.69505 13.4623 5.6136 12.6059 6.77866 12.6059C7.94374 12.6059 8.86594 13.4629 8.86594 14.5455C8.86597 14.8027 8.97591 15.0493 9.17159 15.2311C9.36726 15.4129 9.63264 15.5151 9.90937 15.5151C10.1861 15.5151 10.4515 15.4129 10.6472 15.2311C10.8428 15.0493 10.9528 14.8027 10.9528 14.5455C10.9528 12.4149 9.07159 10.6667 6.77866 10.6667C4.48579 10.6667 2.61076 12.4154 2.60452 14.5428L2.59316 18.4213C2.58097 22.1622 5.87592 25.2119 9.8981 25.2119C13.9199 25.2119 17.2026 22.1612 17.2026 18.4238V6.7877C17.2026 4.0986 19.5265 1.93917 22.4203 1.93917C25.3146 1.93917 27.6355 4.09822 27.638 6.78847L27.6494 19.3946C27.6495 19.522 27.6766 19.6481 27.7292 19.7657C27.7817 19.8833 27.8587 19.9902 27.9557 20.0801C28.0527 20.1701 28.1679 20.2414 28.2945 20.29C28.4212 20.3387 28.557 20.3636 28.694 20.3635C28.9707 20.3633 29.236 20.2609 29.4316 20.0789C29.6271 19.897 29.7368 19.6503 29.7366 19.3931L29.7253 6.78697C29.7219 3.05071 26.4425 0.000153271 22.4203 0.000153271ZM38.0848 7.7574C35.7919 7.7574 33.9111 9.50552 33.9111 11.6362L33.8993 19.3923C33.8955 22.0831 31.5757 24.2422 28.6816 24.2422C25.7874 24.2422 23.4642 22.083 23.464 19.3937V18.4237C23.464 18.1665 23.354 17.9198 23.1583 17.7379C22.9626 17.556 22.6971 17.4539 22.4203 17.4539C22.1435 17.4539 21.8781 17.556 21.6823 17.7379C21.4866 17.9198 21.3767 18.1665 21.3767 18.4237C21.3768 24.3263 16.2498 29.0906 9.898 29.0906C6.72208 29.0905 3.85984 27.8976 1.7815 25.9663C1.6846 25.8763 1.56956 25.8048 1.44294 25.7561C1.31633 25.7073 1.18063 25.6823 1.04359 25.6823C0.906541 25.6823 0.77084 25.7073 0.644228 25.7561C0.517616 25.8048 0.402574 25.8763 0.305672 25.9663C0.208763 26.0564 0.131888 26.1633 0.0794409 26.2809C0.0269938 26.3986 0 26.5247 0 26.652C0 26.7794 0.0269938 26.9055 0.0794409 27.0231C0.131888 27.1408 0.208763 27.2477 0.305672 27.3377C2.75943 29.6179 6.1582 31.0298 9.89809 31.0298C15.6375 31.0298 20.5446 27.6945 22.5228 23.0046C23.82 24.9055 26.0897 26.1812 28.6815 26.1812C28.6816 26.1812 28.6818 26.1812 28.6819 26.1812C32.7037 26.1811 35.981 23.1305 35.9865 19.3946L35.9978 11.6374C35.9978 11.6369 35.9978 11.6364 35.9978 11.6359C35.9978 10.5532 36.9196 9.69664 38.0847 9.69664C38.2218 9.69668 38.3575 9.67162 38.4842 9.62288C38.6109 9.57415 38.7259 9.5027 38.8229 9.41262C38.9198 9.32254 38.9967 9.21559 39.0492 9.09789C39.1016 8.98019 39.1286 8.85404 39.1285 8.72664C39.1285 8.59928 39.1015 8.47317 39.049 8.35552C38.9966 8.23786 38.9197 8.13096 38.8227 8.04092C38.7258 7.95088 38.6107 7.87947 38.4841 7.83076C38.3575 7.78205 38.2217 7.757 38.0847 7.75704L38.0848 7.7574ZM41.2175 13.5754C40.9407 13.575 40.6751 13.6766 40.4791 13.8581C40.283 14.0396 40.1726 14.286 40.172 14.5432L40.1602 19.3917C40.1462 25.2968 35.0334 30.0604 28.6816 30.0604C27.0935 30.0604 25.5863 29.7619 24.2139 29.2224C23.959 29.1223 23.6718 29.1203 23.4153 29.217C23.1589 29.3136 22.9543 29.501 22.8465 29.7378C22.7931 29.8551 22.765 29.981 22.764 30.1084C22.763 30.2358 22.7889 30.3621 22.8404 30.4801C22.8919 30.5981 22.968 30.7056 23.0642 30.7963C23.1604 30.887 23.2748 30.9593 23.4011 31.0089C25.0248 31.647 26.8117 32 28.6815 32C36.1613 32 42.2309 26.3438 42.2475 19.3958L42.2589 14.5472C42.2592 14.4199 42.2325 14.2937 42.1803 14.1759C42.1281 14.0582 42.0515 13.9511 41.9548 13.8609C41.8581 13.7706 41.7432 13.6989 41.6167 13.65C41.4902 13.601 41.3545 13.5757 41.2175 13.5754Z" fill="#3941BC"/>
<path d="M72.5313 18.9495C72.5313 21.0087 72.0788 22.8363 71.174 24.4322C70.2692 26.0024 69.0412 27.2379 67.4901 28.1388C65.9389 29.0397 64.1939 29.4902 62.255 29.4902C60.3161 29.4902 58.571 29.0397 57.0199 28.1388C55.4688 27.2379 54.2279 26.0024 53.2972 24.4322C52.3924 22.8363 51.9399 21.0087 51.9399 18.9495C51.9399 16.8646 52.3924 15.037 53.2972 13.4669C54.2279 11.871 55.4688 10.6226 57.0199 9.72166C58.571 8.79501 60.3161 8.33168 62.255 8.33168C64.1939 8.33168 65.9389 8.79501 67.4901 9.72166C69.0412 10.6226 70.2692 11.871 71.174 13.4669C72.0788 15.037 72.5313 16.8646 72.5313 18.9495ZM68.6534 18.9495C68.6534 17.5338 68.369 16.3112 67.8003 15.2815C67.2315 14.2262 66.456 13.4025 65.4736 12.8105C64.5171 12.1927 63.4442 11.8838 62.255 11.8838C61.0658 11.8838 59.98 12.1927 58.9976 12.8105C58.0152 13.4025 57.2397 14.2262 56.6709 15.2815C56.1022 16.3112 55.8178 17.5338 55.8178 18.9495C55.8178 20.3138 56.1022 21.5236 56.6709 22.5789C57.2397 23.6343 58.0152 24.4579 58.9976 25.05C59.98 25.642 61.0658 25.938 62.255 25.938C63.4442 25.938 64.5171 25.642 65.4736 25.05C66.456 24.4579 67.2315 23.6343 67.8003 22.5789C68.369 21.5236 68.6534 20.3138 68.6534 18.9495Z" fill="#3941BC"/>
<path d="M76.649 9.02667H85.7619C86.279 9.02667 86.7056 9.20685 87.0416 9.56721C87.4036 9.90184 87.5845 10.3266 87.5845 10.8414C87.5845 11.3304 87.4036 11.7423 87.0416 12.0769C86.7056 12.4115 86.279 12.5788 85.7619 12.5788H76.649C76.132 12.5788 75.6925 12.4115 75.3306 12.0769C74.9945 11.7165 74.8264 11.2918 74.8264 10.8027C74.8264 10.2879 74.9945 9.86323 75.3306 9.5286C75.6925 9.19398 76.132 9.02667 76.649 9.02667ZM80.7208 4.00732C81.2895 4.00732 81.7548 4.20038 82.1168 4.58648C82.4787 4.94684 82.6597 5.41017 82.6597 5.97645V23.8917C82.6597 24.355 82.7372 24.7282 82.8923 25.0114C83.0475 25.2945 83.2543 25.4875 83.5128 25.5905C83.7972 25.6935 84.0815 25.745 84.3659 25.745C84.6503 25.745 84.8959 25.6935 85.1027 25.5905C85.3354 25.4875 85.6068 25.4361 85.9171 25.4361C86.2273 25.4361 86.5117 25.5776 86.7702 25.8608C87.0287 26.1439 87.158 26.53 87.158 27.0191C87.158 27.6369 86.8219 28.1388 86.1497 28.5249C85.4776 28.911 84.7537 29.1041 83.9781 29.1041C83.5387 29.1041 83.0216 29.0654 82.427 28.9882C81.8324 28.911 81.2507 28.7179 80.682 28.4091C80.1391 28.1002 79.6867 27.6111 79.3247 26.9419C78.9628 26.2469 78.7818 25.2816 78.7818 24.0461V5.97645C78.7818 5.41017 78.9628 4.94684 79.3247 4.58648C79.7125 4.20038 80.1779 4.00732 80.7208 4.00732Z" fill="#3941BC"/>
<path d="M91.6075 9.02667H100.72C101.237 9.02667 101.664 9.20685 102 9.56721C102.362 9.90184 102.543 10.3266 102.543 10.8414C102.543 11.3304 102.362 11.7423 102 12.0769C101.664 12.4115 101.237 12.5788 100.72 12.5788H91.6075C91.0904 12.5788 90.6509 12.4115 90.289 12.0769C89.9529 11.7165 89.7849 11.2918 89.7849 10.8027C89.7849 10.2879 89.9529 9.86323 90.289 9.5286C90.6509 9.19398 91.0904 9.02667 91.6075 9.02667ZM95.6792 4.00732C96.248 4.00732 96.7133 4.20038 97.0752 4.58648C97.4372 4.94684 97.6181 5.41017 97.6181 5.97645V23.8917C97.6181 24.355 97.6957 24.7282 97.8508 25.0114C98.0059 25.2945 98.2127 25.4875 98.4712 25.5905C98.7556 25.6935 99.04 25.745 99.3244 25.745C99.6087 25.745 99.8543 25.6935 100.061 25.5905C100.294 25.4875 100.565 25.4361 100.876 25.4361C101.186 25.4361 101.47 25.5776 101.729 25.8608C101.987 26.1439 102.116 26.53 102.116 27.0191C102.116 27.6369 101.78 28.1388 101.108 28.5249C100.436 28.911 99.7122 29.1041 98.9366 29.1041C98.4971 29.1041 97.9801 29.0654 97.3855 28.9882C96.7909 28.911 96.2092 28.7179 95.6404 28.4091C95.0975 28.1002 94.6451 27.6111 94.2832 26.9419C93.9213 26.2469 93.7403 25.2816 93.7403 24.0461V5.97645C93.7403 5.41017 93.9213 4.94684 94.2832 4.58648C94.671 4.20038 95.1363 4.00732 95.6792 4.00732Z" fill="#3941BC"/>
<path d="M126.192 18.9495C126.192 21.0087 125.74 22.8363 124.835 24.4322C123.93 26.0024 122.702 27.2379 121.151 28.1388C119.6 29.0397 117.855 29.4902 115.916 29.4902C113.977 29.4902 112.232 29.0397 110.681 28.1388C109.13 27.2379 107.889 26.0024 106.958 24.4322C106.053 22.8363 105.601 21.0087 105.601 18.9495C105.601 16.8646 106.053 15.037 106.958 13.4669C107.889 11.871 109.13 10.6226 110.681 9.72166C112.232 8.79501 113.977 8.33168 115.916 8.33168C117.855 8.33168 119.6 8.79501 121.151 9.72166C122.702 10.6226 123.93 11.871 124.835 13.4669C125.74 15.037 126.192 16.8646 126.192 18.9495ZM122.314 18.9495C122.314 17.5338 122.03 16.3112 121.461 15.2815C120.893 14.2262 120.117 13.4025 119.135 12.8105C118.178 12.1927 117.105 11.8838 115.916 11.8838C114.727 11.8838 113.641 12.1927 112.659 12.8105C111.676 13.4025 110.901 14.2262 110.332 15.2815C109.763 16.3112 109.479 17.5338 109.479 18.9495C109.479 20.3138 109.763 21.5236 110.332 22.5789C110.901 23.6343 111.676 24.4579 112.659 25.05C113.641 25.642 114.727 25.938 115.916 25.938C117.105 25.938 118.178 25.642 119.135 25.05C120.117 24.4579 120.893 23.6343 121.461 22.5789C122.03 21.5236 122.314 20.3138 122.314 18.9495Z" fill="#3941BC"/>
</g>
<defs>
<clipPath id="clip0_123_232">
<rect width="127" height="32" fill="white"/>
</clipPath>
</defs>
</svg>
